<svg version="1.0" xmlns="http://www.w3.org/2000/svg" width="682.667" height="682.667" viewBox="0 0 512 512"><g fill="#61DAFB"><path d="M148.5 39.1c-14.9 2.1-25.7 10.5-33.1 25.4-3.6 7.3-7 19.1-8.2 28.5-1.1 8.8-.7 42.8.7 51 .7 4.1 1.5 8.8 1.7 10.5.3 1.6 1.2 6.3 2 10.4.8 4 1.3 7.9 1.1 8.5-.3.7-2.5 1.8-4.8 2.5-2.4.7-10.2 3.6-17.4 6.3-59.3 23.1-88.9 56.9-77.1 88.2 2.8 7.4 4.4 10.2 10.1 17.1 14.8 18.1 41.6 34.3 78 47.1 7.7 2.7 11.9 4.7 11.9 5.6-.2 1.3-.5 2.8-2.4 12.8-.6 3-1.3 7.5-1.6 10-.3 2.5-.7 5.1-1 5.9-.8 2.4-1.8 21.3-1.8 31.6.3 35.2 10 58.7 28.5 68.9 23.3 12.8 61.5.8 102.4-32.1 5.5-4.4 12-9.9 14.5-12.1l4.5-4 6.5 5.7c36.7 32.4 74 50.1 98.7 47 21.3-2.7 34.2-15.9 40.8-41.4 5.7-22.4 5-50.9-2.1-86.4-.8-4-1.3-7.5-1.2-7.6.2-.1 3.4-1.2 7.3-2.4 46.3-14.8 82.5-40.2 91.8-64.5 2.6-6.9 2.8-8 2.8-16.1-.2-29-36.5-59.6-93.2-78.4l-9.7-3.2 1.3-5.7c.7-3.1 1.6-7.7 2-10.2.3-2.5 1.1-7.4 1.6-11 3.5-22.7 3.1-50.1-1.1-66.7-5.4-21.4-17.4-35.9-33.5-40.6-5.3-1.5-21.4-1.7-27-.3-25.1 6.3-54.9 23.9-80.5 47.4-2.5 2.3-4.8 4.2-5.1 4.2-.4 0-3.3-2.4-6.6-5.3s-9.7-8.2-14.4-11.8c-33.4-26-63.5-38.1-86.4-34.8zm217.7 23.8c17.1 8.4 22.2 51.4 11.7 99.9-1.2 5.8.1 5.5-11.9 2.7-7.7-1.9-48.7-8.5-52.5-8.5-.1 0-2.9-3.5-6.1-7.8-6.7-9-21.8-27.1-29.7-35.7-3-3.3-5.3-6.4-5-7 .2-.5 4.5-4.5 9.6-8.7 35.6-29.9 67.3-43.1 83.9-34.9zM174 64c18.2 6.4 42.4 21.7 60.3 38.2l5.7 5.3-5.7 6.1c-10.5 11.1-19.2 21.6-29.7 35.5-6.1 8.2-5.9 8.1-17.1 9.4-5.9.7-10.9 1.4-15 2.1-4.9.8-13.8 2.4-16.5 2.9-1.4.3-3.8.8-5.5 1.1-1.6.3-5.6 1.2-8.9 2-3.2.8-6 1.3-6.3 1.1-.4-.5-3.7-16-4.7-22.7-2.6-16.3-2.7-42.8-.2-55 1.8-8.7 5.9-18.7 9.5-22.8 1.1-1.3 3.7-3.2 5.8-4.3 5.2-2.7 19.1-2.2 28.3 1.1zm100.8 80.3c4.5 5.4 8.2 9.9 8.2 10 0 .1-12.1.2-27 .2-14.8 0-27-.1-27-.3 0-.7 10.1-13 16.6-20.2 2.2-2.5 5.4-6 7-7.8l2.8-3.3 5.7 5.8c3 3.2 9.2 10.2 13.7 15.6zm9.2 33.1c7.4.4 14.3.9 15.5 1.2 3.7.9 25.7 36.2 39.4 63.2l7.2 14.3-5.5 11.2c-3 6.2-7.5 14.8-10 19.2-2.5 4.4-4.8 8.7-5.2 9.5-1.3 2.6-18.6 30.4-21.2 34-1.5 1.9-2.7 3.6-2.8 3.8-.5.9-27.5 2.5-44.4 2.5-12.7 0-41.7-1.2-44.5-1.9-1.1-.3-3.6-2.8-5.4-5.7-13.8-20.8-27.8-44.7-36.2-62l-4.7-9.9 1.9-4.6c6.9-15.9 40.1-72.9 42.8-73.3.3 0 1.5-.2 2.6-.5 1.1-.2 8.5-.7 16.5-1 8-.3 14.6-.7 14.7-.8.4-.3 26.3.2 39.3.8zm-103 5c0 .2-3.7 6.6-8.3 14.2-4.6 7.7-10.6 18.1-13.2 23.1-3.8 7.1-5.1 8.9-5.8 7.7-2-3.6-12.7-34.7-12.7-37 0-.6 5.1-2.1 11.3-3.3 23-4.5 28.7-5.4 28.7-4.7zm173.5 3.7c8.2 1.7 15.3 3.3 15.7 3.7.9.9-2.8 13-8.7 29.1l-3.8 10.3-1.5-2.8c-3.4-6.9-13-23.7-18.9-33.1-3.4-5.5-6.3-10.4-6.3-10.8 0-.8 3.9-.2 23.5 3.6zm-231 24.1c2.6 7.9 7.5 20.8 10.8 28.8 3.3 8 6 15.8 6 17.5 0 1.6-2.3 8.5-5 15.2-2.8 6.7-7.5 19.3-10.4 28-2.8 8.7-5.5 16.1-5.9 16.6-.7.8-18.7-5.4-30.5-10.6C55 290.8 33 271.2 33 256.2c0-5.4 4.9-14.4 11.3-20.9 13.1-13.4 35-25.6 66.7-37.1 3-1.1 6-2 6.7-2.1.6-.1 3.2 6.3 5.8 14.1zm287-8.5c39.1 14.7 66.5 35.9 68.2 52.8.5 4.6.1 6.3-2.2 11.1-6.6 13.4-27.5 29.1-54.5 40.8-5.8 2.5-27.6 10.6-28.5 10.6-.3 0-2-4.8-3.8-10.8-3.7-11.6-9.8-28.3-12.6-34.7-1-2.2-2.8-6.5-4.1-9.6l-2.2-5.6 6.5-16.4c6.8-17 14.7-40 14.7-42.6 0-2 3.7-1.1 18.5 4.4zm-252.6 88.4c4.8 9.2 9.2 17.1 14.4 25.4 5.6 9 8.7 14.4 8.7 15 0 .5-1.9.2-21.6-3.6-8.8-1.7-16.6-3.4-17.3-3.9-1-.6-.2-3.8 3.2-14.1 5.7-17.1 8.8-25.1 9.3-24.6.2.2 1.7 2.8 3.3 5.8zm205.4 7.9c6.8 19 8.1 24.1 6.5 25.1-.7.5-1.7.9-2.3 1-.5 0-1.7.2-2.5.4-6.9 1.5-19.2 3.8-27 5.1-1.4.2-3.5.6-4.7.9-1.3.3-2.3.2-2.3-.2 0-.5 2.3-4.3 5-8.6 2.8-4.3 5-8 5-8.3 0-.2 1-2.1 2.3-4.2 2.6-4 8.1-14.1 11.6-21.1 1.3-2.4 2.6-3.9 3.1-3.5.4.5 2.8 6.5 5.3 13.4zM141 346c1.9.6 4.9 1.3 6.5 1.5 1.7.3 6.4 1.2 10.5 2s9 1.7 10.8 2c1.7.3 4.7.8 6.5 1.1 1.7.3 4.6.7 6.2.9 12.7 1.4 15.1 1.8 16.5 2.5.9.5 4.3 4.4 7.6 8.7 3.2 4.3 6.5 8.4 7.2 9.1.7.8 2.5 3 4 5 1.5 2.1 3.4 4.4 4.2 5.2.9.8 2.8 3.1 4.4 5 1.6 1.9 5.6 6.4 8.9 9.9l6 6.4-4.4 4.1c-5 4.7-17.7 15-22.9 18.6-1.9 1.3-3.7 2.7-4 3-.3.4-5.2 3.5-11 6.9-9.3 5.4-23.2 11.7-28.3 12.7-1 .2-2.7.6-3.7.9-1 .3-4.7.6-8.2.7-15.2.3-23.4-9.2-27.4-31.7-2.2-11.7-2-35.2.2-50 2.6-16.9 4.5-25.5 5.8-25.5.6 0 2.7.5 4.6 1zm236.4.7c.6 2 2.4 11 3.2 16.3.3 1.9.7 4.6 1 6 2.4 13.8 2.5 42 0 54-1.9 9.7-6.2 19.3-10.3 23.2-4.5 4.3-9.1 5.7-17.4 5.4-15.5-.7-35.9-10.1-57.9-26.5-8.5-6.3-23.1-18.7-23.1-19.6 0-.3 2.7-3.6 5.9-7.3 12.4-13.9 16.6-19 25.6-30.7 5-6.6 9.7-12.1 10.2-12.2.6-.1 3.8-.5 7-.8 3.3-.3 7.1-.8 8.4-1 1.4-.3 4.5-.8 7-1.1 2.5-.3 7.9-1.2 12-2s8.9-1.7 10.5-2c1.7-.2 5.5-1.1 8.5-1.8 7.6-1.9 8.8-1.9 9.4.1zM283 358c0 1.9-25.1 31-26.8 31-1.2 0-18.7-19.6-26.1-29.2-1.2-1.6.2-1.7 20.9-1.5 18 .2 30-.2 31.8-1.2.1 0 .2.3.2.9z"/><path d="M247.2 211.7c-22.4 4.5-38 24.6-36.7 47.2 1.6 25.6 23.6 44.9 49 42.8 38.7-3.3 55.9-49.8 28.6-77.4-10.7-10.7-26.3-15.6-40.9-12.6z"/></g></svg>
